<?xml version="1.0" standalone="no"?><!DOCTYPE svg PUBLIC "-//W3C//DTD SVG 1.1//EN" "http://www.w3.org/Graphics/SVG/1.1/DTD/svg11.dtd"><svg t="1726196500076" class="icon" viewBox="0 0 1141 1024" version="1.1" xmlns="http://www.w3.org/2000/svg" p-id="2627" xmlns:xlink="http://www.w3.org/1999/xlink" width="222.8515625" height="200"><path d="M1141.350889 39.056096l-28.912998 218.474979c-126.144988-19.927998-251.600975-38.376996-377.754963-27.674997-115.459989 9.802999-227.405978 32.180997-309.12497 122.987988C275.539973 519.540049 357.166965 749.305027 583.810943 790.307023c141.114986 25.525998 283.919972 11.784999 425.447958-8.122999-5.451999 112.439989-5.764999 95.302991-10.674999 205.22998-1.074 24.056998 4.277 14.611999-161.648984 31.913996-176.003983 9.003999-351.879966 11.188999-520.549949-52.887994-159.839984-60.717994-285.709972-157.279985-311.20797-335.624968C-21.074998 447.220056 53.979995 299.020071 197.693981 184.687082 413.36896 13.098099 790.802923-47.269895 1141.349889 39.056096z" fill="#5B5C5C" p-id="2628"></path></svg>